<svg xmlns="http://www.w3.org/2000/svg" xmlns:xlink="http://www.w3.org/1999/xlink" viewBox="0 0 60 50" version="1.1" x="0px" y="0px"><title>10 -Karma- (symbols, sign, symbolism)</title><desc>Created with Sketch.</desc><g stroke="none" stroke-width="1" fill="none" fill-rule="evenodd" stroke-linecap="round"><g transform="translate(-1200.000000, -360.000000)" stroke="#ffffff" stroke-width="2"><g transform="translate(1201.000000, 361.000000)"><path d="M0,19 C0,17.343 1.343,16 3,16 C4.657,16 6,17.343 6,19 C6,20.657 4.657,22 3,22 C1.343,22 0,20.657 0,19 L0,19 Z"/><path d="M52,19 C52,17.343 53.343,16 55,16 C56.657,16 58,17.343 58,19 C58,20.657 56.657,22 55,22 C53.343,22 52,20.657 52,19 L52,19 Z"/><path d="M29,0 C18.507,0 10,8.507 10,19 L48,19 C48,8.507 39.493,0 29,0 L29,0 Z"/><path d="M29,38 C39.493,38 48,29.493 48,19 L10,19 C10,29.493 18.507,38 29,38 L29,38 Z"/></g></g></g><text x="0" y="55" fill="#ffffff" font-size="5px" font-weight="bold" font-family="'Helvetica Neue', Helvetica, Arial-Unicode, Arial, Sans-serif">Created by Ben Davis</text><text x="0" y="60" fill="#ffffff" font-size="5px" font-weight="bold" font-family="'Helvetica Neue', Helvetica, Arial-Unicode, Arial, Sans-serif">from the Noun Project</text></svg>